<?xml version="1.0" encoding="UTF-8" standalone="no"?>
<svg
   xmlns:dc="http://purl.org/dc/elements/1.1/"
   xmlns:cc="http://creativecommons.org/ns#"
   xmlns:rdf="http://www.w3.org/1999/02/22-rdf-syntax-ns#"
   xmlns:svg="http://www.w3.org/2000/svg"
   xmlns="http://www.w3.org/2000/svg"
   xmlns:sodipodi="http://sodipodi.sourceforge.net/DTD/sodipodi-0.dtd"
   xmlns:inkscape="http://www.inkscape.org/namespaces/inkscape"
   width="213.70966pt"
   height="125.4287pt"
   viewBox="0 0 213.70966 125.4287"
   version="1.1"
   id="svg2"
   inkscape:version="0.91 r13725"
   sodipodi:docname="cloud.svg">
  <metadata
     id="metadata12">
    <rdf:RDF>
      <cc:Work
         rdf:about="">
        <dc:format>image/svg+xml</dc:format>
        <dc:type
           rdf:resource="http://purl.org/dc/dcmitype/StillImage" />
        <dc:title></dc:title>
      </cc:Work>
    </rdf:RDF>
  </metadata>
  <defs
     id="defs10" />
  <sodipodi:namedview
     pagecolor="#ffffff"
     bordercolor="#666666"
     borderopacity="1"
     objecttolerance="10"
     gridtolerance="10"
     guidetolerance="10"
     inkscape:pageopacity="0"
     inkscape:pageshadow="2"
     inkscape:window-width="1920"
     inkscape:window-height="1021"
     id="namedview8"
     showgrid="false"
     fit-margin-top="0"
     fit-margin-left="0"
     fit-margin-right="0"
     fit-margin-bottom="0"
     inkscape:zoom="1.0136986"
     inkscape:cx="-105.05473"
     inkscape:cy="113.12859"
     inkscape:window-x="0"
     inkscape:window-y="27"
     inkscape:window-maximized="1"
     inkscape:current-layer="svg2" />
  <path
     d="m 179.36317,24.093387 c -6.28,-12.31 -18.85,-20.5899999 -32.24,-23.17999985 -12.31,-2.31000005 -25.57,-0.27 -36.22,6.47999995 -9.9,5.8799999 -17.209996,15.9699999 -19.469996,27.2999999 -8.55,-2.3 -17.49,-4.19 -26.35,-2.47 -12.080005,1.86 -23.920005,8.28 -30.370005,18.93 -3.14,4.88 -4.48,10.67 -4.86,16.4 -8.36,0.27 -16.99,2.04 -23.8100001,7.13 -3.65,2.94 -6.82999997,7.48 -5.86999997,12.4 0.95999997,5.84 6.12999997,9.79 11.13000007,12.23 12.51,5.610003 27.55,5.270003 39.8,-0.89 8.650005,3.950003 18.220005,5.500003 27.680005,4.640003 6.6,11.35 18.6,19.08 31.439996,21.36 15.76,3.33 32.8,-1.78 44.44,-12.85 11.44,5.96 25.46,6.79 37.45,1.96 9.22,-3.63 17.27,-11.04 20.37,-20.610003 2.73,-8.48 0.79,-18.14 -4.7,-25.11 -6.08,-8.14 -15.8,-12.88 -25.69,-14.43 2.61,-9.69 2.12,-20.37 -2.73,-29.29 z"
     id="path6"
     inkscape:connector-curvature="0"
     style="fill:#ffffff" />
</svg>
