<?xml version="1.0" encoding="UTF-8" standalone="no"?>
<svg
   xmlns:dc="http://purl.org/dc/elements/1.1/"
   xmlns:cc="http://creativecommons.org/ns#"
   xmlns:rdf="http://www.w3.org/1999/02/22-rdf-syntax-ns#"
   xmlns:svg="http://www.w3.org/2000/svg"
   xmlns="http://www.w3.org/2000/svg"
   xmlns:sodipodi="http://sodipodi.sourceforge.net/DTD/sodipodi-0.dtd"
   xmlns:inkscape="http://www.inkscape.org/namespaces/inkscape"
   version="1.1"
   id="svg2"
   viewBox="0 0 1433.2677 1242.6548"
   height="350.7048mm"
   width="404.5mm"
   inkscape:version="0.91 r13725"
   sodipodi:docname="logo_social.svg"
   inkscape:export-filename="/run/media/achopra/064AABE84AABD32B/PC/repos/hacktrec-site/img/logo_social.png"
   inkscape:export-xdpi="90"
   inkscape:export-ydpi="90">
  <sodipodi:namedview
     pagecolor="#ffffff"
     bordercolor="#666666"
     borderopacity="1"
     objecttolerance="10"
     gridtolerance="10"
     guidetolerance="10"
     inkscape:pageopacity="0"
     inkscape:pageshadow="2"
     inkscape:window-width="1920"
     inkscape:window-height="1021"
     id="namedview15"
     showgrid="false"
     inkscape:zoom="0.67411121"
     inkscape:cx="614.41577"
     inkscape:cy="810.52522"
     inkscape:window-x="0"
     inkscape:window-y="27"
     inkscape:window-maximized="1"
     inkscape:current-layer="g4160"
     fit-margin-top="0"
     fit-margin-left="0"
     fit-margin-right="0"
     fit-margin-bottom="0" />
  <defs
     id="defs4">
    <clipPath
       clipPathUnits="userSpaceOnUse"
       id="clipPath4207">
      <rect
         style="opacity:1;fill:#06b6ff;fill-opacity:1;stroke:none;stroke-width:3.81399989;stroke-linecap:butt;stroke-linejoin:round;stroke-miterlimit:4;stroke-dasharray:none;stroke-opacity:1"
         id="rect4209"
         width="47.119778"
         height="40.685246"
         x="263.02625"
         y="212.84061" />
    </clipPath>
  </defs>
  <metadata
     id="metadata7">
    <rdf:RDF>
      <cc:Work
         rdf:about="">
        <dc:format>image/svg+xml</dc:format>
        <dc:type
           rdf:resource="http://purl.org/dc/dcmitype/StillImage" />
        <dc:title></dc:title>
      </cc:Work>
    </rdf:RDF>
  </metadata>
  <g
     transform="translate(404.82421,370.29874)"
     id="layer1">
    <g
       transform="matrix(30.543133,0,0,30.543133,-8438.4698,-6871.1177)"
       id="g4160">
      <g
         id="g4193"
         clip-path="url(#clipPath4207)"
         transform="matrix(1,0,0,1.004775,0,-1.0163245)">
        <rect
           y="212.82713"
           x="262.83249"
           height="40.539539"
           width="47.119778"
           id="rect4162"
           style="opacity:1;fill:#06b6ff;fill-opacity:1;stroke:none;stroke-width:3.81399989;stroke-linecap:butt;stroke-linejoin:round;stroke-miterlimit:4;stroke-dasharray:none;stroke-opacity:1" />
        <path
           id="path6-1"
           d="m 280.89769,207.21864 c 0.56791,-1.11325 1.70467,-1.86204 2.91557,-2.09626 1.11325,-0.20881 2.31239,-0.0245 3.27551,0.58602 0.8953,0.53173 1.55635,1.44421 1.76075,2.46882 0.7732,-0.20793 1.58169,-0.37891 2.38293,-0.22335 1.09243,0.16816 2.16316,0.74878 2.74646,1.71191 0.28396,0.44133 0.40515,0.96492 0.43951,1.4831 0.75602,0.0243 1.53647,0.18452 2.15322,0.64478 0.33008,0.26588 0.61768,0.67648 0.53085,1.1214 -0.0869,0.52814 -0.55437,0.88534 -1.00654,1.10599 -1.13131,0.50735 -2.49144,0.4766 -3.59925,-0.0805 -0.78226,0.35723 -1.6477,0.49739 -2.50319,0.41964 -0.59686,1.0264 -1.68207,1.72545 -2.84325,1.93165 -1.42523,0.30114 -2.96621,-0.16109 -4.01887,-1.16209 -1.03456,0.539 -2.30245,0.61406 -3.38675,0.17723 -0.83379,-0.32828 -1.56177,-0.9984 -1.84212,-1.86384 -0.24689,-0.76688 -0.0713,-1.64046 0.42504,-2.27081 0.54985,-0.73611 1.42884,-1.16477 2.32324,-1.30496 -0.23604,-0.87629 -0.1918,-1.84213 0.24689,-2.64879 z"
           style="fill:#ffffff"
           inkscape:connector-curvature="0" />
        <flowRoot
           inkscape:export-ydpi="90"
           inkscape:export-xdpi="90"
           transform="matrix(2.475736,0,0,2.6620641,-43.874585,-234.3763)"
           style="font-style:normal;font-variant:normal;font-weight:normal;font-stretch:normal;font-size:5.06485128px;line-height:125%;font-family:FreeSans;-inkscape-font-specification:'FreeSans, Normal';text-align:start;letter-spacing:0px;word-spacing:0px;writing-mode:lr-tb;text-anchor:start;fill:#009688;fill-opacity:1;stroke:none;stroke-width:1px;stroke-linecap:butt;stroke-linejoin:miter;stroke-opacity:1"
           id="flowRoot4136"
           xml:space="preserve"><flowRegion
             id="flowRegion4138"><rect
               style="font-style:normal;font-variant:normal;font-weight:normal;font-stretch:normal;font-size:5.06485128px;line-height:125%;font-family:FreeSans;-inkscape-font-specification:'FreeSans, Normal';text-align:start;writing-mode:lr-tb;text-anchor:start;fill:#009688;fill-opacity:1"
               y="168.47873"
               x="125.25892"
               height="29.294416"
               width="86.8731"
               id="rect4140" /></flowRegion><flowPara
             style="font-style:italic;font-variant:normal;font-weight:normal;font-stretch:normal;font-size:5.06485128px;line-height:125%;font-family:Aroly;-inkscape-font-specification:'Aroly, Italic';text-align:start;letter-spacing:-0.47185728px;writing-mode:lr-tb;text-anchor:start;fill:#9c27b0;fill-opacity:1"
             id="flowPara4142">HACK</flowPara></flowRoot>        <path
           id="path6"
           d="m 293.44602,234.95533 c 0.56791,-1.11325 1.70467,-1.86204 2.91557,-2.09626 1.11325,-0.20881 2.31239,-0.0245 3.27551,0.58602 0.8953,0.53173 1.55635,1.44421 1.76075,2.46882 0.7732,-0.20793 1.58169,-0.37891 2.38293,-0.22335 1.09243,0.16816 2.16316,0.74878 2.74646,1.7119 0.28396,0.44133 0.40515,0.96493 0.43951,1.48311 0.75602,0.0243 1.53647,0.18451 2.15322,0.64478 0.33008,0.26588 0.61768,0.67647 0.53085,1.12139 -0.0869,0.52814 -0.55437,0.88534 -1.00654,1.106 -1.13131,0.50734 -2.49144,0.47659 -3.59925,-0.0805 -0.78226,0.35722 -1.6477,0.49739 -2.50319,0.41963 -0.59686,1.0264 -1.68207,1.72546 -2.84325,1.93165 -1.42523,0.30114 -2.96621,-0.16109 -4.01887,-1.16208 -1.03456,0.53899 -2.30245,0.61405 -3.38675,0.17722 -0.83379,-0.32828 -1.56177,-0.99839 -1.84212,-1.86384 -0.24689,-0.76688 -0.0713,-1.64046 0.42504,-2.2708 0.54985,-0.73612 1.42884,-1.16478 2.32324,-1.30497 -0.23604,-0.87629 -0.1918,-1.84212 0.24689,-2.64878 z"
           style="fill:#ffffff"
           inkscape:connector-curvature="0" />
        <path
           inkscape:export-ydpi="90"
           inkscape:export-xdpi="90"
           id="path6-1-9"
           d="m 271.02894,249.34248 c 0.59616,-1.16864 1.78948,-1.95468 3.06063,-2.20056 1.16864,-0.2192 2.42745,-0.0257 3.43849,0.61518 0.93985,0.55819 1.63379,1.51607 1.84836,2.59166 0.81167,-0.21828 1.66039,-0.39777 2.50149,-0.23447 1.14679,0.17653 2.27079,0.78604 2.88311,1.79709 0.29809,0.46329 0.42531,1.01293 0.46138,1.55689 0.79364,0.0255 1.61292,0.19371 2.26036,0.67687 0.3465,0.27911 0.64841,0.71014 0.55726,1.17719 -0.0912,0.55442 -0.58195,0.92939 -1.05662,1.16102 -1.1876,0.5326 -2.6154,0.50032 -3.77833,-0.0845 -0.82119,0.375 -1.72969,0.52213 -2.62774,0.44052 -0.62656,1.07747 -1.76577,1.8113 -2.98472,2.02776 -1.49614,0.31612 -3.1138,-0.16911 -4.21883,-1.21991 -1.08604,0.56581 -2.41701,0.64461 -3.55526,0.18604 -0.87528,-0.34461 -1.63948,-1.04807 -1.93378,-1.95657 -0.25917,-0.80504 -0.0749,-1.72208 0.44619,-2.3838 0.57721,-0.77273 1.49993,-1.22272 2.43883,-1.36989 -0.24778,-0.91989 -0.20134,-1.93378 0.25918,-2.78058 z"
           style="fill:#ffffff"
           inkscape:connector-curvature="0" />
        <text
           sodipodi:linespacing="122%"
           transform="scale(1.0771849,0.92834573)"
           id="text4144"
           y="267.76569"
           x="243.47092"
           style="font-style:normal;font-variant:normal;font-weight:600;font-stretch:normal;font-size:21.54369736px;line-height:122.00000286%;font-family:FreeSans;-inkscape-font-specification:'FreeSans, Semi-Bold';text-align:start;letter-spacing:-8.07888699px;word-spacing:0px;writing-mode:lr-tb;text-anchor:start;fill:#ffc107;fill-opacity:1;stroke:none;stroke-width:1px;stroke-linecap:butt;stroke-linejoin:miter;stroke-opacity:1"
           xml:space="preserve"><tspan
             style="font-style:normal;font-variant:normal;font-weight:normal;font-stretch:normal;font-size:32.31554794px;line-height:122.00000286%;font-family:Ailerons;-inkscape-font-specification:'Ailerons, Normal';text-align:start;letter-spacing:-8.61747932px;writing-mode:lr-tb;text-anchor:start;fill:#ff5722;fill-opacity:1"
             y="267.76569"
             x="243.47092"
             id="tspan4146">T<tspan
   style="letter-spacing:-11.4935627px;fill:#ff5722;fill-opacity:1"
   id="tspan4589">R</tspan><tspan
   id="tspan4285"
   style="letter-spacing:-10.66413021px;fill:#ff5722;fill-opacity:1">E</tspan>C</tspan></text>
      </g>
    </g>
  </g>
</svg>
