<?xml version="1.0" encoding="UTF-8" standalone="no"?>
<svg
   xmlns:dc="http://purl.org/dc/elements/1.1/"
   xmlns:cc="http://creativecommons.org/ns#"
   xmlns:rdf="http://www.w3.org/1999/02/22-rdf-syntax-ns#"
   xmlns:svg="http://www.w3.org/2000/svg"
   xmlns="http://www.w3.org/2000/svg"
   xmlns:xlink="http://www.w3.org/1999/xlink"
   xmlns:sodipodi="http://sodipodi.sourceforge.net/DTD/sodipodi-0.dtd"
   xmlns:inkscape="http://www.inkscape.org/namespaces/inkscape"
   id="svg4370"
   viewBox="0 0 1200 400"
   height="400pt"
   width="1200pt"
   version="1.0"
   inkscape:version="0.91 r13725"
   sodipodi:docname="mounts_green_twitter.svg"
   inkscape:export-filename="/run/media/achopra/064AABE84AABD32B/PC/repos/hacktrec-site/img/mounts_green.png"
   inkscape:export-xdpi="90"
   inkscape:export-ydpi="90">
  <sodipodi:namedview
     pagecolor="#ffffff"
     bordercolor="#666666"
     borderopacity="1"
     objecttolerance="10"
     gridtolerance="10"
     guidetolerance="10"
     inkscape:pageopacity="0"
     inkscape:pageshadow="2"
     inkscape:window-width="1920"
     inkscape:window-height="1021"
     id="namedview23"
     showgrid="false"
     inkscape:zoom="0.53890425"
     inkscape:cx="546.46446"
     inkscape:cy="624.18406"
     inkscape:window-x="0"
     inkscape:window-y="27"
     inkscape:window-maximized="1"
     inkscape:current-layer="svg4370"
     fit-margin-top="0"
     fit-margin-left="0"
     fit-margin-right="0"
     fit-margin-bottom="0" />
  <metadata
     id="metadata4399">
    <rdf:RDF>
      <cc:Work
         rdf:about="">
        <dc:format>image/svg+xml</dc:format>
        <dc:type
           rdf:resource="http://purl.org/dc/dcmitype/StillImage" />
        <dc:title></dc:title>
      </cc:Work>
    </rdf:RDF>
  </metadata>
  <defs
     id="defs4397">
    <linearGradient
       id="linearGradient4294">
      <stop
         id="stop4296"
         offset="0"
         style="stop-color:#ffc107;stop-opacity:1;" />
      <stop
         id="stop4298"
         offset="1"
         style="stop-color:#ffc107;stop-opacity:0;" />
    </linearGradient>
    <radialGradient
       gradientUnits="userSpaceOnUse"
       gradientTransform="matrix(12.917046,0.01190364,-0.00614305,6.72112,-174.25439,101.05026)"
       r="68.635284"
       fy="35.669613"
       fx="59.97274"
       cy="35.669613"
       cx="59.97274"
       id="radialGradient4302"
       xlink:href="#linearGradient4294" />
  </defs>
  <g
     style="fill:#a6a5a5;stroke:none"
     id="g4393"
     transform="matrix(0.87389881,0,0,-0.87213166,31.79515,1656.9767)" />
  <rect
     style="display:inline;opacity:1;fill:#80d8ff;fill-opacity:1;stroke:none;stroke-width:3.81399989;stroke-linecap:butt;stroke-linejoin:round;stroke-miterlimit:4;stroke-dasharray:none;stroke-opacity:1"
     id="rect4178-8"
     width="1199.6058"
     height="399.02853"
     x="-6.1035162e-06"
     y="0" />
  <rect
     style="opacity:1;fill:url(#radialGradient4302);fill-opacity:1;stroke:none;stroke-width:3.81399989;stroke-linecap:butt;stroke-linejoin:round;stroke-miterlimit:4;stroke-dasharray:none;stroke-opacity:1"
     id="rect4178"
     width="1199.6058"
     height="398.33524"
     x="0.3942408"
     y="0.18463135" />
  <path
     style="fill:#8d6e63;fill-opacity:1;stroke:none"
     class="node"
     id="node8"
     d="m 429.0515,159.42177 c -19.04058,23.39198 -52.11106,65.33632 -72.15377,92.76144 -21.04485,28.23169 -42.08971,53.23694 -48.10251,55.6568 -7.01496,3.22653 -28.05981,-8.87275 -50.10679,-29.03829 -33.07048,-29.84496 -41.08757,-33.0715 -53.1132,-23.39207 -30.06407,25.00525 -135.288323,132.28592 -135.288323,137.93222 0,4.03313 245.523253,6.45299 546.163983,6.45299 300.64068,0 546.16401,-2.41986 546.16401,-6.45299 0,-3.22644 -14.0299,-19.35885 -31.0661,-36.29794 -27.0578,-26.61852 -35.0748,-29.84498 -60.1282,-25.81185 -24.0513,4.83971 -29.062,2.41986 -35.0748,-15.32582 -9.0192,-30.65155 -38.08109,-48.39723 -62.13245,-37.91122 -23.04917,9.67952 -23.04917,10.48611 -72.1538,-57.27007 -46.09821,-63.72306 -63.13453,-66.14292 -117.24985,-19.35886 -48.10251,40.33099 -55.11747,42.75084 -73.15592,25.00525 -21.04484,-20.16554 -37.07902,-13.71256 -54.11532,20.16545 -9.01922,17.74568 -21.04485,32.26491 -26.05554,32.26491 -6.01281,0 -28.05979,-21.7788 -48.10251,-49.20391 -59.12601,-77.43561 -91.19436,-112.1203 -105.22425,-112.1203 -8.01709,0 -30.06408,19.35886 -49.10466,41.94426 z"
     inkscape:connector-curvature="0" />
  <path
     style="fill:#ffee58;fill-opacity:1;stroke:none"
     d="m 862.9915,222.64377 c -9.46728,-4.29161 -14.67566,0.72282 -33.43447,-12.18215 -59.93455,-41.23149 -47.86066,23.74863 -85.30365,28.20526 -20.52514,2.44303 -102.13219,23.39994 -133.44153,25.13887 -73.47731,4.08088 -89.80574,-162.47471 -147.35362,-130.93494 -15.3163,8.39415 -48.37313,51.19355 -58.21197,59.35504 -8.71901,7.23269 -46.15944,-20.28872 -50.78156,-20.28872 -14.21642,0 21.5668,-30.68057 62.67902,-53.7411 29.01229,-16.27347 82.42248,-36.626575 113.19696,-43.136155 26.97796,-5.70644 42.02372,-7.11755 75.99378,-7.12719 33.4565,-0.01 45.37509,0.9617 75.44707,6.14771 62.91745,10.85054 121.35092,34.177175 166.06873,66.295025 17.54705,12.60283 38.95407,34.48607 41.13733,36.40178 21.13525,18.54475 -18.56166,49.23663 -25.99609,45.86657 z"
     id="path4468"
     inkscape:connector-curvature="0" />
  <path
     d="m 338.74457,139.97456 c -4.77491,6.77787 -14.7588,25.26315 -23.00637,41.89981 -7.81348,16.63666 -18.66554,35.12195 -23.44044,40.66746 -5.20899,5.54562 -16.49513,31.42487 -25.61086,56.68803 -8.68164,25.87935 -18.66554,46.82926 -22.1382,46.82926 -3.03858,0 -14.7588,-14.17203 -26.04495,-32.04104 -16.06104,-25.26317 -20.83595,-30.19261 -24.3086,-22.79847 -2.17042,4.92936 -3.90675,11.09116 -3.90675,13.55577 0,3.0809 -9.54981,3.69708 -21.27003,1.23237 -16.49512,-3.08082 -22.57228,-1.84855 -28.21535,6.16179 -3.90674,5.54552 -6.94532,12.32349 -6.94532,15.4043 0,3.0809 -11.28614,16.63675 -25.17677,29.57642 -13.45656,13.55575 -29.083522,33.27331 -34.726593,43.74826 l -9.983894,19.10147 552.586837,0 552.58692,-0.61616 -13.8906,-17.25292 c -7.8136,-9.24262 -23.4406,-23.41455 -34.7267,-31.42489 -11.7202,-7.39404 -27.3472,-22.79844 -35.1606,-33.27339 l -14.7589,-19.10137 -16.061,26.49552 c -8.6816,14.17193 -18.2314,25.87924 -21.27,25.87924 -3.0386,0 -8.6816,-10.47494 -12.5884,-23.41462 -7.8135,-27.11162 -12.1544,-32.04104 -29.95167,-32.04104 -8.24751,0 -17.79738,-5.54553 -23.87456,-14.17194 -5.64303,-7.39415 -20.40187,-25.87935 -32.55623,-40.05128 -12.15427,-14.17204 -24.7427,-33.88958 -27.78124,-44.36453 -3.03855,-9.85879 -6.94531,-18.48529 -9.11573,-18.48529 -2.17041,0 -10.41801,14.78821 -18.66552,33.2734 -8.2476,18.48528 -16.92924,35.12194 -19.53374,37.58665 -2.6045,1.84855 -9.54981,17.25284 -15.62696,33.88958 -34.29251,96.12314 -49.05131,103.5172 -84.64606,43.74837 -9.98389,-17.86912 -24.7427,-35.73813 -32.55617,-40.05138 -10.41799,-6.1617 -15.19289,-14.17194 -17.3633,-27.1116 -1.30225,-9.85878 -6.51124,-23.41463 -10.85207,-28.96024 -4.77489,-6.1617 -11.28614,-25.26308 -15.19288,-43.74828 -3.47265,-17.86911 -8.24756,-33.88959 -10.41797,-35.73811 -8.24757,-7.39406 -25.61086,22.79844 -45.14456,77.63794 -11.28615,32.04103 -25.17678,64.69826 -31.68802,73.32469 l -10.85206,14.7881 -7.81348,-14.78811 c -8.24756,-15.4044 -7.81348,-16.02057 -25.61086,17.25283 l -7.81348,14.17199 -19.96779,-19.10137 c -18.23146,-17.2529 -62.94194,-48.67777 -82.90973,-58.53655 -4.34082,-1.84853 -9.98389,-11.09113 -13.02247,-20.9499 -3.03858,-9.85877 -19.09962,-34.50576 -36.46292,-55.45567 -16.92921,-20.94992 -32.55618,-40.66747 -33.85843,-44.36455 -3.90673,-9.24259 -9.98389,-7.39405 -18.66553,4.92945 z"
     id="node18-9"
     class="node"
     style="fill:#795548;fill-opacity:1;stroke:none;stroke-width:1px;stroke-linecap:butt;stroke-linejoin:miter;stroke-opacity:1"
     inkscape:connector-curvature="0" />
  <path
     d="m 1113.2715,232.20417 c -5.1784,5.43036 -13.8091,7.24047 -23.3028,5.43036 l -15.1037,-3.01687 17.2613,9.0505 c 9.0623,4.82698 16.8298,8.44721 17.2614,7.84385 0,-0.60334 3.8838,-7.24048 8.1992,-15.08424 9.4936,-15.08422 7.7675,-16.89425 -4.3154,-4.2236 z"
     id="node19"
     class="node"
     style="fill:#000000;fill-opacity:1;stroke:none;stroke-opacity:1"
     inkscape:connector-curvature="0" />
  <path
     d="m 148.19573,206.13924 c -7.90073,7.63045 -21.06862,11.03951 -35.55332,9.90263 l -23.043834,-1.98495 26.335794,9.47143 c 13.82632,5.06947 25.67741,8.74984 26.33581,7.92008 0,-0.77576 5.92555,-9.79528 12.50953,-20.4204 14.48467,-20.58259 11.8511,-22.69328 -6.58398,-4.88879 z"
     id="node19-2"
     class="node"
     style="fill:#000000;fill-opacity:1;stroke:none;stroke-opacity:1"
     inkscape:connector-curvature="0" />
  <path
     d="m 1007.519,185.77932 c -10.97998,2.33567 -21.46974,-1.2934 -28.90784,-9.23417 l -11.68551,-12.77561 7.31104,20.42101 c 3.75697,10.79942 7.53519,19.51883 8.61288,19.16749 0.65105,-0.6268 11.65204,-5.04249 24.38193,-10.43623 25.6624,-9.60992 25.9076,-12.5922 0.2875,-7.14249 z"
     id="node19-6"
     class="node"
     style="fill:#000000;fill-opacity:1;stroke:none;stroke-opacity:1"
     inkscape:connector-curvature="0" />
  <path
     d="m 241.11897,122.51637 c -10.7684,0.63518 -24.2736,-3.60812 -36.79725,-11.05932 L 184.48189,99.502345 203.7186,117.26757 c 10.05303,9.38195 18.98716,17.04494 19.97707,16.88152 0.37019,-0.44182 10.01974,-2.79596 21.02942,-5.75543 22.8886,-4.9201 21.52019,-7.3594 -3.60612,-5.87729 z"
     id="node19-2-6"
     class="node"
     style="fill:#000000;fill-opacity:1;stroke:none;stroke-opacity:1"
     inkscape:connector-curvature="0" />
  <path
     d="m 629.30966,183.44595 c -17.33977,7.17901 -43.75796,7.8863 -71.51557,2.75387 l -44.11268,-8.37842 48.49448,18.28679 c 25.43371,9.71782 47.41142,17.24322 48.90807,16.41045 0.20677,-0.93818 14.09023,-10.3096 29.6774,-21.45205 33.54698,-21.1359 29.00767,-24.37181 -11.4517,-7.62064 z"
     id="node19-2-6-5"
     class="node"
     style="fill:#000000;fill-opacity:1;stroke:none;stroke-opacity:1"
     inkscape:connector-curvature="0" />
  <g
     transform="matrix(8.7389881,0,0,8.7213166,77.952827,67.932595)"
     id="layer2" />
</svg>
