<?xml version="1.0" encoding="UTF-8" standalone="no"?>
<!--?xml version="1.0" standalone="no"?-->

<svg
   xmlns:dc="http://purl.org/dc/elements/1.1/"
   xmlns:cc="http://creativecommons.org/ns#"
   xmlns:rdf="http://www.w3.org/1999/02/22-rdf-syntax-ns#"
   xmlns:svg="http://www.w3.org/2000/svg"
   xmlns="http://www.w3.org/2000/svg"
   xmlns:sodipodi="http://sodipodi.sourceforge.net/DTD/sodipodi-0.dtd"
   xmlns:inkscape="http://www.inkscape.org/namespaces/inkscape"
   version="1.0"
   width="125.72226pt"
   height="37.002327pt"
   viewBox="0 0 125.72226 37.002327"
   id="svg4370"
   inkscape:version="0.91 r13725"
   sodipodi:docname="mounts.svg">
  <metadata
     id="metadata4399">
    <rdf:RDF>
      <cc:Work
         rdf:about="">
        <dc:format>image/svg+xml</dc:format>
        <dc:type
           rdf:resource="http://purl.org/dc/dcmitype/StillImage" />
        <dc:title />
      </cc:Work>
    </rdf:RDF>
  </metadata>
  <defs
     id="defs4397" />
  <sodipodi:namedview
     pagecolor="#ffffff"
     bordercolor="#666666"
     borderopacity="1"
     objecttolerance="10"
     gridtolerance="10"
     guidetolerance="10"
     inkscape:pageopacity="0"
     inkscape:pageshadow="2"
     inkscape:window-width="1920"
     inkscape:window-height="1021"
     id="namedview4395"
     showgrid="false"
     fit-margin-top="0"
     fit-margin-left="0"
     fit-margin-right="0"
     fit-margin-bottom="0"
     inkscape:zoom="10.666667"
     inkscape:cx="68.529459"
     inkscape:cy="19.585226"
     inkscape:window-x="0"
     inkscape:window-y="27"
     inkscape:window-maximized="1"
     inkscape:current-layer="g4372" />
  <g
     transform="matrix(0.1,0,0,-0.1,-5.2818103,203.00233)"
     id="g4372"
     style="fill:#242223;stroke:none">
    <path
       style="fill:#ca6150;fill-opacity:1;stroke:none"
       class="node"
       id="node8"
       d="m 467.05469,1926.5664 c -21.87957,-26.4519 -59.88093,-73.883 -82.91205,-104.8956 -24.18268,-31.9247 -48.36537,-60.2009 -55.2747,-62.9373 -8.0609,-3.6486 -32.24358,10.0334 -57.57782,32.8368 -38.00136,33.749 -47.21381,37.3976 -61.03248,26.452 -34.54669,-28.2762 -155.460104,-149.5903 -155.460104,-155.9752 0,-4.5607 282.131294,-7.2971 627.598184,-7.2971 345.46688,0 627.59818,2.7364 627.59818,7.2971 0,3.6485 -16.1218,21.8912 -35.6982,41.0461 -31.0921,30.1005 -40.3045,33.749 -69.0934,29.1883 -27.6374,-5.4728 -33.3952,-2.7364 -40.3045,17.3306 -10.364,34.6611 -43.7591,54.7281 -71.3965,42.8704 -26.4858,-10.9457 -26.4858,-11.8578 -82.912,64.7616 -52.97162,72.0587 -72.54808,74.7951 -134.73212,21.8912 -55.2747,-45.6067 -63.3356,-48.3431 -84.06361,-28.2762 -24.18268,22.8034 -42.60759,15.5063 -62.18404,-22.8033 -10.36401,-20.067 -24.18268,-36.4855 -29.94047,-36.4855 -6.90933,0 -32.24357,24.6277 -55.2747,55.6403 -67.94182,87.565 -104.79162,126.7868 -120.91341,126.7868 -9.21245,0 -34.54669,-21.8912 -56.42626,-47.431 z"
       inkscape:connector-curvature="0" />
    <path
       style="fill:#fff460;fill-opacity:1;stroke:none"
       d="m 967.1357,1855.0743 c -10.83338,4.853 -16.79332,-0.8174 -38.25897,13.7757 -68.58294,46.625 -54.76682,-26.8552 -97.61273,-31.8948 -23.48686,-2.7626 -116.86959,-26.4609 -152.69678,-28.4273 -84.07988,-4.6147 -102.76446,183.7281 -168.61634,148.0626 -17.5264,-9.4922 -55.35324,-57.8902 -66.61179,-67.1193 -9.97715,-8.1788 -52.82012,22.9427 -58.10921,22.9427 -16.26781,0 24.67884,34.6939 71.72343,60.771 33.19869,18.4022 94.31582,41.4177 129.53098,48.7788 30.8708,6.4529 48.08762,8.0486 86.95947,8.0595 38.28418,0.011 51.92259,-1.0875 86.33387,-6.9519 71.99627,-12.2699 138.86153,-38.6479 190.03199,-74.9671 20.07904,-14.2514 44.57503,-38.9972 47.07336,-41.1635 24.18502,-20.9706 -21.24008,-55.6773 -29.74728,-51.8664 z"
       id="path4468"
       inkscape:connector-curvature="0"
       sodipodi:nodetypes="ssssssssssssss" />
    <g
       id="g4150"
       transform="matrix(4.9380305,0,0,-6.8229425,52.818103,1860.2361)"
       style="fill:#eb0000;fill-opacity:1;stroke:none;stroke-opacity:1">
      <g
         style="fill:#ca6134;fill-opacity:1;stroke:none;stroke-opacity:1"
         id="g4"
         transform="matrix(0.1,0,0,-0.1,-17.9,58.218198)">
        <path
           inkscape:connector-curvature="0"
           d="m 812,712 c -11,-11 -34,-41 -53,-68 -18,-27 -43,-57 -54,-66 -12,-9 -38,-51 -59,-92 -20,-42 -43,-76 -51,-76 -7,0 -34,23 -60,52 -37,41 -48,49 -56,37 -5,-8 -9,-18 -9,-22 0,-5 -22,-6 -49,-2 -38,5 -52,3 -65,-10 -9,-9 -16,-20 -16,-25 0,-5 -26,-27 -58,-48 -31,-22 -67,-54 -80,-71 l -23,-31 1273,0 1273,1 -32,28 c -18,15 -54,38 -80,51 -27,12 -63,37 -81,54 l -34,31 -37,-43 c -20,-23 -42,-42 -49,-42 -7,0 -20,17 -29,38 -18,44 -28,52 -69,52 -19,0 -41,9 -55,23 -13,12 -47,42 -75,65 -28,23 -57,55 -64,72 -7,16 -16,30 -21,30 -5,0 -24,-24 -43,-54 -19,-30 -39,-57 -45,-61 -6,-3 -22,-28 -36,-55 -79,-156 -113,-168 -195,-71 -23,29 -57,58 -75,65 -24,10 -35,23 -40,44 -3,16 -15,38 -25,47 -11,10 -26,41 -35,71 -8,29 -19,55 -24,58 -19,12 -59,-37 -104,-126 -26,-52 -58,-105 -73,-119 l -25,-24 -18,24 c -19,25 -18,26 -59,-28 l -18,-23 -46,31 c -42,28 -145,79 -191,95 -10,3 -23,18 -30,34 -7,16 -44,56 -84,90 -39,34 -75,66 -78,72 -9,15 -23,12 -43,-8 z"
           id="node18-9"
           class="node"
           style="fill:#ca6134;fill-opacity:1;stroke:none;stroke-width:1px;stroke-linecap:butt;stroke-linejoin:miter;stroke-opacity:1" />
        <path
           inkscape:connector-curvature="0"
           d="m 2610.561,558.77146 c -12,-9 -32,-12 -54,-9 l -35,5 40,-15 c 21,-8 39,-14 40,-13 0,1 9,12 19,25 22,25 18,28 -10,7 z"
           id="node19"
           class="node"
           style="fill:#000000;fill-opacity:1;stroke:none;stroke-opacity:1" />
        <path
           transform="matrix(8,0,0,-8,179,729.44862)"
           inkscape:connector-curvature="0"
           id="path4203"
           d="m 2.2824079,52.234844 c 2.3524815,-3.057227 6.3250885,-6.616831 12.5246221,-11.22253 3.578422,-2.658447 5.153827,-4.090638 5.639468,-5.126806 0.977017,-2.084571 2.849252,-3.789538 4.501738,-4.099546 0.789475,-0.148107 3.146633,-0.06497 5.238129,0.184752 4.222469,0.504154 6.469182,0.28057 6.469182,-0.643789 0,-1.04621 1.188741,-2.941616 1.844892,-2.941616 0.348014,0 3.290193,2.60417 6.538182,5.787045 6.948515,6.809225 7.131721,6.873698 9.518481,3.349608 0.813857,-1.201669 2.736606,-4.543658 4.272783,-7.426644 3.236278,-6.073612 5.008058,-8.686991 8.732948,-12.881128 1.478866,-1.665169 4.284406,-5.240381 6.23453,-7.9449151 4.048017,-5.6139943 6.788417,-8.53515713 8.382286,-8.93519248 0.917368,-0.23024455 1.274778,-0.0745121 2.1209,0.92412078 0.559683,0.6605665 4.056534,3.9227843 7.770782,7.2493732 7.834243,7.0165756 10.723039,10.0746406 12.694339,13.4381356 1.58849,2.710346 2.53053,3.471303 5.97621,4.827433 6.99057,2.751304 18.06141,8.575725 24.31337,12.791383 1.57415,1.061441 2.94984,1.929891 3.05709,1.929891 0.10725,0 1.34902,-1.474775 2.75949,-3.277277 1.41047,-1.802503 3.02714,-3.70889 3.59261,-4.236416 1.01317,-0.94519 1.04023,-0.948182 1.86062,-0.205733 0.45788,0.414372 1.46795,1.619051 2.2446,2.677063 l 1.41209,1.923658 1.96897,-1.916548 c 2.62104,-2.551268 5.11069,-6.277318 8.84534,-13.238052 4.50168,-8.390347 6.03956,-11.005006 8.23045,-13.9931515 3.46421,-4.724818 5.64169,-5.8487224 6.84041,-3.5306643 0.32615,0.6307039 1.23987,3.080163 2.03049,5.4432418 1.66851,4.987007 2.89902,7.55709 4.49313,9.384501 1.34319,1.539766 2.47284,3.709402 3.38695,6.505072 0.74796,2.287502 2.01608,3.645594 4.61217,4.93938 2.86281,1.426714 6.3913,4.451836 9.68622,8.304401 4.73072,5.531369 7.58474,7.576457 10.57331,7.576457 2.10614,0 3.42613,-0.708813 5.49035,-2.94823 2.19726,-2.383745 4.47048,-5.956522 8.04372,-12.642157 1.65003,-3.087264 3.83256,-6.508698 5.02157,-7.872036 1.15669,-1.326277 3.69963,-4.774356 5.65098,-7.662395 1.95135,-2.88804 3.93343,-5.599872 4.40461,-6.026293 0.84994,-0.7691841 0.86133,-0.7690741 1.44063,0.01391 0.32116,0.43407 1.1114,1.772402 1.7561,2.97407 0.6447,1.201668 1.90683,3.042929 2.80473,4.091691 2.33887,2.731824 16.15669,14.586778 17.80443,15.275248 0.7623,0.318508 2.82907,0.710636 4.59282,0.871394 1.94187,0.176992 3.62308,0.565027 4.26208,0.983716 0.6199,0.406172 1.87097,2.27594 3.03244,4.532095 2.04388,3.970218 3.27492,5.62827 4.17878,5.62827 0.99659,0 4.02899,-2.690009 7.32803,-6.500605 1.82265,-2.105281 3.40008,-3.827785 3.50539,-3.827785 0.10531,0 1.20608,0.962829 2.44615,2.139621 3.04114,2.885959 7.96372,6.361327 11.61111,8.197513 3.49549,1.759707 9.33331,5.644679 11.89621,7.916714 l 1.7876,1.584733 -158.62359,0.01184 L 0.45974697,54.603535 2.2824079,52.23485 Z"
           style="fill:#ca6134;fill-opacity:1;stroke:none;stroke-width:1px;stroke-linecap:butt;stroke-linejoin:miter;stroke-opacity:1" />
        <path
           inkscape:connector-curvature="0"
           d="m 374.17654,601.97069 c -18.30849,-12.64648 -48.82263,-18.2966 -82.38826,-16.41238 l -53.39983,3.2898 61.02836,-15.69761 c 32.03993,-8.40194 59.50265,-14.50165 61.02836,-13.12638 0,1.28561 13.73137,16.23433 28.98851,33.84394 33.56556,34.11292 27.46273,37.6111 -15.25714,8.10263 z"
           id="node19-2"
           class="node"
           style="fill:#000000;fill-opacity:1;stroke:none;stroke-opacity:1" />
        <path
           inkscape:connector-curvature="0"
           d="m 2365.4992,635.71438 c -25.4442,-3.87097 -49.7521,2.14365 -66.9886,15.3045 l -27.079,21.17385 16.942,-33.84516 c 8.7061,-17.89861 17.4613,-32.34981 19.9587,-31.7675 1.5083,1.03885 27.0015,8.35723 56.5006,17.29672 59.468,15.92707 60.0362,20.86985 0.6663,11.83759 z"
           id="node19-6"
           class="node"
           style="fill:#000000;fill-opacity:1;stroke:none;stroke-opacity:1" />
        <path
           inkscape:connector-curvature="0"
           d="m 589.50897,740.56414 c -24.95379,-1.05276 -56.24961,5.98001 -85.27083,18.32944 l -45.97512,19.81322 44.5775,-29.44343 c 23.29603,-15.54935 43.99923,-28.24967 46.29317,-27.97887 0.85781,0.73227 23.21889,4.63403 48.73179,9.53885 53.04008,8.15444 49.86907,12.19721 -8.35651,9.74079 z"
           id="node19-2-6"
           class="node"
           style="fill:#000000;fill-opacity:1;stroke:none;stroke-opacity:1" />
        <path
           inkscape:connector-curvature="0"
           d="m 1489.0691,639.58172 c -40.1817,-11.89835 -101.401,-13.07048 -165.7241,-4.56423 l -102.223,13.88605 112.377,-30.30782 c 58.9379,-16.10601 109.8672,-28.57833 113.3354,-27.19811 0.4792,1.55485 32.6515,17.08677 68.7719,35.55382 77.7389,35.02999 67.2199,40.39308 -26.5372,12.63029 z"
           id="node19-2-6-5"
           class="node"
           style="fill:#000000;fill-opacity:1;stroke:none;stroke-opacity:1" />
      </g>
      <g
         style="fill:#eb0000;fill-opacity:1;stroke:none;stroke-opacity:1"
         id="g25"
         transform="matrix(0.1,0,0,-0.1,-17.9,72.944861)" />
    </g>
  </g>
  <g
     transform="matrix(0.1,0,0,-0.1,-5.2818103,203.00233)"
     id="g4393"
     style="fill:#a6a5a5;stroke:none" />
</svg>
