<?xml version="1.0" encoding="UTF-8" standalone="no"?>
<!--?xml version="1.0" standalone="no"?-->

<svg
   xmlns:dc="http://purl.org/dc/elements/1.1/"
   xmlns:cc="http://creativecommons.org/ns#"
   xmlns:rdf="http://www.w3.org/1999/02/22-rdf-syntax-ns#"
   xmlns:svg="http://www.w3.org/2000/svg"
   xmlns="http://www.w3.org/2000/svg"
   xmlns:sodipodi="http://sodipodi.sourceforge.net/DTD/sodipodi-0.dtd"
   xmlns:inkscape="http://www.inkscape.org/namespaces/inkscape"
   version="1.0"
   width="254.60001pt"
   height="43.944862pt"
   viewBox="0 0 254.60001 43.944862"
   preserveAspectRatio="xMidYMid meet"
   id="svg2"
   inkscape:version="0.91 r13725"
   sodipodi:docname="mounts_bg.svg">
  <metadata
     id="metadata31">
    <rdf:RDF>
      <cc:Work
         rdf:about="">
        <dc:format>image/svg+xml</dc:format>
        <dc:type
           rdf:resource="http://purl.org/dc/dcmitype/StillImage" />
        <dc:title></dc:title>
      </cc:Work>
    </rdf:RDF>
  </metadata>
  <defs
     id="defs29" />
  <sodipodi:namedview
     pagecolor="#ffffff"
     bordercolor="#ffffff"
     borderopacity="1"
     objecttolerance="10"
     gridtolerance="10"
     guidetolerance="10"
     inkscape:pageopacity="0"
     inkscape:pageshadow="2"
     inkscape:window-width="1366"
     inkscape:window-height="690"
     id="namedview27"
     showgrid="false"
     fit-margin-top="0"
     fit-margin-left="0"
     fit-margin-right="0"
     fit-margin-bottom="0"
     inkscape:zoom="2.5173333"
     inkscape:cx="153.128"
     inkscape:cy="69.051066"
     inkscape:window-x="0"
     inkscape:window-y="36"
     inkscape:window-maximized="1"
     inkscape:current-layer="g4" />
  <g
     transform="matrix(0.1,0,0,-0.1,-17.9,72.944861)"
     id="g4"
     style="fill:#242223;stroke:none">
    <path
      style="fill:#c96119;stroke:none;stroke-width:1px;stroke-linecap:butt;stroke-linejoin:miter;stroke-opacity:1;fill-opacity:0.94117647"
       class="node"
       id="node18"
       d="m 812,712 c -11,-11 -34,-41 -53,-68 -18,-27 -43,-57 -54,-66 -12,-9 -38,-51 -59,-92 -20,-42 -43,-76 -51,-76 -7,0 -34,23 -60,52 -37,41 -48,49 -56,37 -5,-8 -9,-18 -9,-22 0,-5 -22,-6 -49,-2 -38,5 -52,3 -65,-10 -9,-9 -16,-20 -16,-25 0,-5 -26,-27 -58,-48 -31,-22 -67,-54 -80,-71 l -23,-31 1273,0 1273,1 -32,28 c -18,15 -54,38 -80,51 -27,12 -63,37 -81,54 l -34,31 -37,-43 c -20,-23 -42,-42 -49,-42 -7,0 -20,17 -29,38 -18,44 -28,52 -69,52 -19,0 -41,9 -55,23 -13,12 -47,42 -75,65 -28,23 -57,55 -64,72 -7,16 -16,30 -21,30 -5,0 -24,-24 -43,-54 -19,-30 -39,-57 -45,-61 -6,-3 -22,-28 -36,-55 -79,-156 -113,-168 -195,-71 -23,29 -57,58 -75,65 -24,10 -35,23 -40,44 -3,16 -15,38 -25,47 -11,10 -26,41 -35,71 -8,29 -19,55 -24,58 -19,12 -59,-37 -104,-126 -26,-52 -58,-105 -73,-119 l -25,-24 -18,24 c -19,25 -18,26 -59,-28 l -18,-23 -46,31 c -42,28 -145,79 -191,95 -10,3 -23,18 -30,34 -7,16 -44,56 -84,90 -39,34 -75,66 -78,72 -9,15 -23,12 -43,-8 z"
       inkscape:connector-curvature="0" />
    <path
       class="node"
       id="node19"
       d="m 2424,685 c -12,-9 -32,-12 -54,-9 l -35,5 40,-15 c 21,-8 39,-14 40,-13 0,1 9,12 19,25 22,25 18,28 -10,7 z"
       inkscape:connector-curvature="0" />
    <path
       style="fill:#c96119;stroke:none;stroke-width:1px;stroke-linecap:butt;stroke-linejoin:miter;stroke-opacity:1;fill-opacity:0.94117647"
       d="m 2.2824079,52.234844 c 2.3524815,-3.057227 6.3250885,-6.616831 12.5246221,-11.22253 3.578422,-2.658447 5.153827,-4.090638 5.639468,-5.126806 0.977017,-2.084571 2.849252,-3.789538 4.501738,-4.099546 0.789475,-0.148107 3.146633,-0.06497 5.238129,0.184752 4.222469,0.504154 6.469182,0.28057 6.469182,-0.643789 0,-1.04621 1.188741,-2.941616 1.844892,-2.941616 0.348014,0 3.290193,2.60417 6.538182,5.787045 6.948515,6.809225 7.131721,6.873698 9.518481,3.349608 0.813857,-1.201669 2.736606,-4.543658 4.272783,-7.426644 3.236278,-6.073612 5.008058,-8.686991 8.732948,-12.881128 1.478866,-1.665169 4.284406,-5.240381 6.23453,-7.9449151 4.048017,-5.6139943 6.788417,-8.53515713 8.382286,-8.93519248 0.917368,-0.23024455 1.274778,-0.0745121 2.1209,0.92412078 0.559683,0.6605665 4.056534,3.9227843 7.770782,7.2493732 7.834243,7.0165756 10.723039,10.0746406 12.694339,13.4381356 1.58849,2.710346 2.53053,3.471303 5.97621,4.827433 6.99057,2.751304 18.06141,8.575725 24.31337,12.791383 1.57415,1.061441 2.94984,1.929891 3.05709,1.929891 0.10725,0 1.34902,-1.474775 2.75949,-3.277277 1.41047,-1.802503 3.02714,-3.70889 3.59261,-4.236416 1.01317,-0.94519 1.04023,-0.948182 1.86062,-0.205733 0.45788,0.414372 1.46795,1.619051 2.2446,2.677063 l 1.41209,1.923658 1.96897,-1.916548 c 2.62104,-2.551268 5.11069,-6.277318 8.84534,-13.238052 4.50168,-8.390347 6.03956,-11.005006 8.23045,-13.9931515 3.46421,-4.724818 5.64169,-5.8487224 6.84041,-3.5306643 0.32615,0.6307039 1.23987,3.080163 2.03049,5.4432418 1.66851,4.987007 2.89902,7.55709 4.49313,9.384501 1.34319,1.539766 2.47284,3.709402 3.38695,6.505072 0.74796,2.287502 2.01608,3.645594 4.61217,4.93938 2.86281,1.426714 6.3913,4.451836 9.68622,8.304401 4.73072,5.531369 7.58474,7.576457 10.57331,7.576457 2.10614,0 3.42613,-0.708813 5.49035,-2.94823 2.19726,-2.383745 4.47048,-5.956522 8.04372,-12.642157 1.65003,-3.087264 3.83256,-6.508698 5.02157,-7.872036 1.15669,-1.326277 3.69963,-4.774356 5.65098,-7.662395 1.95135,-2.88804 3.93343,-5.599872 4.40461,-6.026293 0.84994,-0.7691841 0.86133,-0.7690741 1.44063,0.01391 0.32116,0.43407 1.1114,1.772402 1.7561,2.97407 0.6447,1.201668 1.90683,3.042929 2.80473,4.091691 2.33887,2.731824 16.15669,14.586778 17.80443,15.275248 0.7623,0.318508 2.82907,0.710636 4.59282,0.871394 1.94187,0.176992 3.62308,0.565027 4.26208,0.983716 0.6199,0.406172 1.87097,2.27594 3.03244,4.532095 2.04388,3.970218 3.27492,5.62827 4.17878,5.62827 0.99659,0 4.02899,-2.690009 7.32803,-6.500605 1.82265,-2.105281 3.40008,-3.827785 3.50539,-3.827785 0.10531,0 1.20608,0.962829 2.44615,2.139621 3.04114,2.885959 7.96372,6.361327 11.61111,8.197513 3.49549,1.759707 9.33331,5.644679 11.89621,7.916714 l 1.7876,1.584733 -158.62359,0.01184 -158.62358303,0.01187 1.82266093,-2.368685 z"
       id="path4203"
       inkscape:connector-curvature="0"
       transform="matrix(8,0,0,-8,179,729.44862)" />
  </g>
  <g
     transform="matrix(0.1,0,0,-0.1,-17.9,72.944861)"
     id="g25"
     style="fill:#a6a5a5;stroke:none" />
</svg>
