<?xml version="1.0" encoding="UTF-8" standalone="no"?>
<!-- Created with Inkscape (http://www.inkscape.org/) -->

<svg
   xmlns:dc="http://purl.org/dc/elements/1.1/"
   xmlns:cc="http://creativecommons.org/ns#"
   xmlns:rdf="http://www.w3.org/1999/02/22-rdf-syntax-ns#"
   xmlns:svg="http://www.w3.org/2000/svg"
   xmlns="http://www.w3.org/2000/svg"
   xmlns:sodipodi="http://sodipodi.sourceforge.net/DTD/sodipodi-0.dtd"
   xmlns:inkscape="http://www.inkscape.org/namespaces/inkscape"
   width="148.34041mm"
   height="118.5274mm"
   viewBox="0 0 525.61562 419.97896"
   id="svg2"
   version="1.1"
   inkscape:version="0.91 r13725"
   sodipodi:docname="mountain.svg">
  <defs
     id="defs4" />
  <sodipodi:namedview
     id="base"
     pagecolor="#ffffff"
     bordercolor="#666666"
     borderopacity="1.0"
     inkscape:pageopacity="0.0"
     inkscape:pageshadow="2"
     inkscape:zoom="0.7"
     inkscape:cx="278.82598"
     inkscape:cy="344.04946"
     inkscape:document-units="px"
     inkscape:current-layer="layer1"
     showgrid="false"
     inkscape:window-width="1366"
     inkscape:window-height="690"
     inkscape:window-x="0"
     inkscape:window-y="36"
     inkscape:window-maximized="1"
     showguides="true"
     fit-margin-top="0"
     fit-margin-left="0"
     fit-margin-right="0"
     fit-margin-bottom="0" />
  <metadata
     id="metadata7">
    <rdf:RDF>
      <cc:Work
         rdf:about="">
        <dc:format>image/svg+xml</dc:format>
        <dc:type
           rdf:resource="http://purl.org/dc/dcmitype/StillImage" />
        <dc:title></dc:title>
      </cc:Work>
    </rdf:RDF>
  </metadata>
  <g
     inkscape:groupmode="layer"
     id="layer2"
     inkscape:label="Layer 2"
     transform="translate(-120.98099,-634.16721)" />
  <g
     inkscape:label="Layer 1"
     inkscape:groupmode="layer"
     id="layer1"
     transform="translate(-120.98099,-634.16721)">
    <g
       id="g3337">
      <path
         sodipodi:nodetypes="scsssssssccccccsss"
         style="opacity:1;fill:#d38d5f;fill-opacity:1;stroke:none;stroke-width:3.81399989;stroke-linecap:butt;stroke-linejoin:round;stroke-miterlimit:4;stroke-dasharray:none;stroke-opacity:1"
         d="m 322.16919,1053.3801 c -67.59619,-0.3034 -140.98749,-0.78 -141.26639,-1.0591 -0.27889,-0.279 23.77524,-69.43027 47.34251,-148.86771 23.56727,-79.43745 55.70673,-141.13747 55.70673,-141.91273 0,-1.86833 6.77796,-0.83743 11.35097,1.72638 8.9023,4.99106 32.55094,5.77912 40.65253,5.82489 4.19357,0.0237 14.07461,4.48122 26.7884,0.82212 9.75316,-2.80702 15.93453,-4.55705 24.98201,-7.07272 8.08736,-2.24872 31.16172,-1.51491 46.73882,1.48639 5.83363,1.12395 12.84527,2.17497 15.58143,2.33554 l 4.97483,0.292 41.15514,62.61095 41.15515,62.61095 18.18006,6.0301 18.18005,6.03 36.45268,74.43114 c 20.04892,40.9371 36.45252,74.7111 36.45252,75.0532 0,0.6726 -128.75143,0.5371 -324.42744,-0.3414 z"
         id="path4168"
         inkscape:connector-curvature="0" />
      <path
         sodipodi:nodetypes="sscccssssscss"
         style="opacity:1;fill:#a05a2c;fill-opacity:1;stroke:none;stroke-width:3.81399989;stroke-linecap:butt;stroke-linejoin:round;stroke-miterlimit:4;stroke-dasharray:none;stroke-opacity:1"
         d="m 120.98099,1051.5675 c 0,-0.4156 21.93294,-55.5921 48.73986,-122.6144 l 48.73986,-121.85868 17.02394,-4.82592 17.02394,-4.82591 10.58485,-15.8855 c 9.18549,-13.78537 11.22639,-16.23464 15.43763,-18.52672 6.51187,-3.54421 8.54902,-3.50774 7.64451,0.13672 -0.37918,1.52784 -40.09472,89.24211 -62.50277,164.8015 -22.40805,75.55951 -43.10732,118.30031 -39.92324,119.26061 l -1.32419,4.737 -21.61504,0.3571 c -21.90315,0.3619 -39.82935,-0.3401 -39.82935,-0.7558 z"
         id="path4170"
         inkscape:connector-curvature="0" />
      <path
         sodipodi:nodetypes="casssssscccccccsccccssscccscssscssscssssccsccccsscsscc"
         inkscape:connector-curvature="0"
         id="path4172"
         d="m 328.9307,781.73127 c -0.541,-0.40915 -1.29173,-0.27565 -1.9302,-0.44349 -0.63949,-0.16811 -1.34581,-0.0608 -1.9018,-0.56396 -0.52531,-0.47541 -1.28569,-0.73752 -1.6897,-0.58249 -0.40409,0.15506 -0.85996,-0.0447 -1.0131,-0.44382 -0.15316,-0.39916 -0.7268,-0.72573 -1.2747,-0.72573 -0.5479,0 -1.1367,-0.22728 -1.3084,-0.50507 0,0 -1.331,-0.50508 -2.5763,-0.50508 -1.5263,0 -2.5998,-0.31274 -3.2942,-0.95969 -0.5666,-0.52783 -1.7503,-1.07982 -2.6306,-1.22665 -3.3583,-0.5602 -4.635,-1.04204 -5.875,-2.21737 -0.9702,-0.91947 -1.668,-1.15506 -2.8742,-0.9703 -1.2546,0.19216 -1.6456,0.0427 -1.8407,-0.70354 -0.1363,-0.52113 -0.8968,-1.10465 -1.6901,-1.29671 -0.7932,-0.19205 -2.0273,-0.75762 -2.7423,-1.2568 -1.1102,-0.77501 -2.5389,-0.92149 -9.7784,-1.00255 -5.0116,-0.0561 -8.6104,0.10477 -8.8014,0.39346 -0.3181,0.48075 -3.6458,1.79271 -3.9007,1.53787 -0.096,-0.0963 89.3376,-135.50684 89.884,-136.09207 0.1069,-0.11447 91.3916,138.64864 91.6487,139.31651 0.093,0.24047 -1.8961,0.43723 -4.4194,0.43723 -2.7218,0 -4.5878,-0.20543 -4.5878,-0.50507 0,-0.2778 -1.2241,-0.50508 -2.7202,-0.50508 -1.4961,0 -3.3624,-0.3332 -4.1473,-0.74044 -0.785,-0.40724 -1.9504,-0.60914 -2.5897,-0.44868 -0.6465,0.16226 -1.5236,-0.008 -1.976,-0.38334 -1.3126,-1.08943 -5.961,-1.47104 -24.4272,-2.00539 -12.0331,-0.3482 -17.7841,-0.34152 -18.5853,0.0216 -0.6381,0.28919 -1.8314,0.52581 -2.6517,0.52581 -0.8203,0 -1.4914,0.22728 -1.4914,0.50507 0,0.27779 -0.5548,0.50508 -1.2329,0.50508 -0.6781,0 -1.3734,0.22728 -1.545,0.50508 -0.1717,0.27779 -1.4352,0.50507 -2.8078,0.50507 -1.3725,0 -2.4955,0.22729 -2.4955,0.50508 0,0.27779 -0.5548,0.50507 -1.2329,0.50507 -0.6781,0 -1.3734,0.22729 -1.5451,0.50508 -0.1716,0.27779 -0.8669,0.50508 -1.545,0.50508 -0.6781,0 -1.2329,0.22728 -1.2329,0.50507 0,0.2778 -1.25,0.50508 -2.7779,0.50508 -1.6321,0 -2.7779,0.22236 -2.7779,0.53911 0,0.30971 -0.4309,0.40235 -1.0127,0.21772 -0.6864,-0.21789 -1.1159,-0.0523 -1.3332,0.51401 -0.2455,0.6397 -0.709,0.76256 -1.9784,0.52441 -0.9857,-0.18492 -1.7961,-0.0873 -1.9988,0.24071 -0.4961,0.80265 -2.8401,1.67032 -4.1591,1.5396 -0.6578,-0.0652 -1.2694,0.22876 -1.4488,0.69625 -0.1837,0.47878 -0.6577,0.69885 -1.161,0.5391 -0.4679,-0.14848 -1.2933,0.0574 -1.8343,0.45757 -0.6611,0.489 -1.6656,0.63586 -3.0636,0.44792 -1.2789,-0.17193 -2.2144,-0.0622 -2.4289,0.28499 -0.1919,0.31055 -1.472,0.56462 -2.8445,0.56462 -1.3726,0 -2.4956,0.22728 -2.4956,0.50507 0,0.86419 -12.6901,0.61615 -13.8631,-0.27097 z"
         style="opacity:1;fill:#ffffff;fill-opacity:1;stroke:none;stroke-width:3.81399989;stroke-linecap:butt;stroke-linejoin:round;stroke-miterlimit:4;stroke-dasharray:none;stroke-opacity:1" />
    </g>
  </g>
</svg>
