<?xml version="1.0" encoding="UTF-8" standalone="no"?>
<!--?xml version="1.0" standalone="no"?-->

<svg
   xmlns:dc="http://purl.org/dc/elements/1.1/"
   xmlns:cc="http://creativecommons.org/ns#"
   xmlns:rdf="http://www.w3.org/1999/02/22-rdf-syntax-ns#"
   xmlns:svg="http://www.w3.org/2000/svg"
   xmlns="http://www.w3.org/2000/svg"
   xmlns:sodipodi="http://sodipodi.sourceforge.net/DTD/sodipodi-0.dtd"
   xmlns:inkscape="http://www.inkscape.org/namespaces/inkscape"
   version="1.0"
   width="118pt"
   height="36pt"
   viewBox="0 0 118 36"
   preserveAspectRatio="xMidYMid meet"
   id="svg4232"
   inkscape:version="0.91 r13725"
   sodipodi:docname="mounts_biggieone.svg">
  <metadata
     id="metadata4261">
    <rdf:RDF>
      <cc:Work
         rdf:about="">
        <dc:format>image/svg+xml</dc:format>
        <dc:type
           rdf:resource="http://purl.org/dc/dcmitype/StillImage" />
        <dc:title />
      </cc:Work>
    </rdf:RDF>
  </metadata>
  <defs
     id="defs4259" />
  <sodipodi:namedview
     pagecolor="#ffffff"
     bordercolor="#666666"
     borderopacity="1"
     objecttolerance="10"
     gridtolerance="10"
     guidetolerance="10"
     inkscape:pageopacity="0"
     inkscape:pageshadow="2"
     inkscape:window-width="1366"
     inkscape:window-height="690"
     id="namedview4257"
     showgrid="false"
     fit-margin-top="0"
     fit-margin-left="0"
     fit-margin-right="0"
     fit-margin-bottom="0"
     inkscape:zoom="3.7712362"
     inkscape:cx="73.832728"
     inkscape:cy="22.650059"
     inkscape:window-x="0"
     inkscape:window-y="36"
     inkscape:window-maximized="1"
     inkscape:current-layer="g4234" />
  <g
     transform="matrix(0.1,0,0,-0.1,-17.5,136)"
     id="g4234"
     style="fill:#242223;stroke:none">
    <path
      style="fill:#c87137;fill-opacity:0.94117647"
       class="node"
       id="node13"
       d="M 627,1284 C 536,1196 448,1137 290,1058 l -115,-58 590,0 590,0 -110,53 c -60,30 -137,71 -170,92 -75,48 -212,161 -226,186 -5,10 -17,19 -27,19 -11,-1 10,-26 58,-72 74,-70 73,-79 -4,-42 -26,12 -30,12 -42,-4 -8,-9 -17,-27 -20,-39 -8,-31 -24,-19 -24,18 0,19 -5,29 -15,29 -15,0 -55,-38 -55,-52 0,-5 -4,-6 -10,-3 -5,3 -10,19 -10,35 0,16 -4,31 -10,35 -5,3 -33,-6 -62,-20 l -53,-27 68,66 c 38,36 76,66 85,66 15,0 15,2 2,10 -8,5 -17,10 -20,10 -3,-1 -40,-34 -83,-76 z"
       inkscape:connector-curvature="0" />
    <path
       style="fill:#c87137;fill-opacity:0.94117647"
       d="m 11.863657,39.138736 c 12.175731,-6.165114 16.570978,-8.558674 22.404625,-12.20109 9.24744,-5.77392 15.014175,-10.324905 23.866675,-18.8350756 5.014454,-4.8205437 8.466489,-7.85655648 8.933132,-7.85655648 0.483913,0 3.26446,1.63377348 3.26446,1.91810618 0,0.1117678 -0.304237,0.2032142 -0.676081,0.2032142 -1.251149,0 -3.372613,1.3671289 -7.145818,4.6049662 -2.757473,2.3662206 -12.648047,11.8714185 -12.503322,12.0161425 0.06128,0.06128 2.123879,-0.903077 4.58356,-2.14301 4.478113,-2.25743 7.933882,-3.606332 9.239109,-3.606332 0.946207,0 1.414613,1.185537 1.712526,4.334405 0.265123,2.802279 0.78211,4.286482 1.581465,4.540188 0.734765,0.233205 0.987966,0.04077 1.174674,-0.89277 0.180829,-0.904142 2.920215,-3.941653 4.592306,-5.092082 2.613458,-1.798107 3.517162,-1.232907 3.817037,2.387278 0.230643,2.784382 0.636616,4.171386 1.32949,4.5422 0.704453,0.377013 1.392864,-0.375938 1.978335,-2.163815 0.716521,-2.188062 1.64409,-3.873873 2.853261,-5.185671 1.371927,-1.488363 1.610989,-1.466886 6.098316,0.547858 3.360731,1.50892 5.615883,2.253376 5.91623,1.953028 0.587372,-0.587372 -0.576824,-2.019283 -6.087124,-7.486892 -5.870499,-5.8250205 -8.122527,-8.3320395 -8.122527,-9.0422175 0,-1.08562893 2.250318,0.3484096 3.802939,2.4234617 2.909428,3.8884062 17.375515,15.8124218 26.691045,22.0007268 4.58607,3.046527 11.77183,6.934422 24.52776,13.270883 l 10.87177,5.400505 -72.920388,7.96e-4 -72.9203867,7.95e-4 11.1369317,-5.639124 0,8.2e-5 z"
       id="path4282"
       inkscape:connector-curvature="0"
       transform="matrix(8,0,0,-8,175,1360)" />
    <path
       style="fill:#c87137;fill-opacity:0.94117647"
       d="m 76.646792,2.9816914 c 0.191416,-0.076598 0.420121,-0.067178 0.508233,0.020934 0.08811,0.088112 -0.0685,0.1507836 -0.348029,0.1392698 -0.308903,-0.012724 -0.371735,-0.075556 -0.160204,-0.1602039 z"
       id="path4284"
       inkscape:connector-curvature="0"
       transform="matrix(8,0,0,-8,175,1360)" />
    <path
       style="fill:#c87137;fill-opacity:0.94117647"
       d="M 9.6097542,40.391344 C 26.161443,31.953554 31.942055,28.714433 39.251695,23.781703 45.582879,19.509263 49.79453,16.038149 58.012933,8.3192628 64.804675,1.940326 66.821859,0.24115307 67.370626,0.43681669 c 0.809512,0.28863287 2.696758,1.44743271 2.696758,1.65585421 0,0.1129005 -0.415394,0.272683 -0.923098,0.355072 -1.21816,0.19768 -3.167903,1.5183711 -6.674806,4.5212905 C 59.386918,9.6085933 49.832112,18.813226 50.000205,18.98132 c 0.05568,0.05568 1.878949,-0.745789 4.051706,-1.781048 5.000793,-2.382743 6.808656,-3.152277 8.41619,-3.582431 2.175987,-0.582264 2.384502,-0.317442 2.956073,3.754306 0.457161,3.256709 1.036891,4.708576 1.930792,4.83544 0.47954,0.06806 0.686743,-0.117017 1.017645,-0.908977 0.457237,-1.094323 3.095104,-3.990783 4.717665,-5.180141 0.632854,-0.46389 1.366369,-0.758048 1.890277,-0.758048 1.075122,0 1.331219,0.567454 1.721706,3.814919 0.26857,2.233536 0.730893,3.643315 1.31271,4.002898 0.486989,0.300975 1.23591,-0.355685 1.715353,-1.504035 1.940043,-4.646741 3.517456,-6.844112 4.913142,-6.844112 0.399858,0 2.265607,0.649265 4.146107,1.44281 8.350631,3.523849 8.315523,2.8408 -0.306859,-5.970141 -6.189737,-6.3250991 -7.930933,-8.3186615 -7.655227,-8.7647639 0.283673,-0.4589956 1.361214,0.42716 5.017219,4.1261065 4.644994,4.6995504 10.336091,9.5327904 18.031226,15.3132624 8.36607,6.284472 12.08997,8.464569 29.43332,17.23127 l 12.99308,6.567735 -72.655218,0.0041 -72.65522166,0.0041 8.61786386,-4.393251 0,5e-6 z"
       id="path4288"
       inkscape:connector-curvature="0"
       transform="matrix(8,0,0,-8,175,1360)" />
    <path
       style="fill:#c87137;fill-opacity:0.94117647"
       d=""
       id="path4290"
       inkscape:connector-curvature="0"
       transform="matrix(8,0,0,-8,175,1360)" />
    <path
       style="fill:#c87137;fill-opacity:0.94117647"
       d="M 9.2915568,40.621035 C 25.434115,32.379812 30.951608,29.3095 38.061964,24.611208 44.99647,20.029114 48.951191,16.82681 57.530166,8.8469938 c 6.409437,-5.9618011 9.082526,-8.24058593 9.666478,-8.24058593 0.284466,0 1.048149,0.31115073 1.697075,0.69144613 L 70.073581,1.9893 68.630762,2.5757052 C 67.01653,3.2317786 66.130648,3.8492048 62.816374,6.6281142 60.434347,8.625366 51.436334,17.203715 50.546631,18.325604 l -0.508422,0.641102 0.62628,-0.198774 c 0.344455,-0.109325 2.005133,-0.849679 3.6904,-1.645231 6.265312,-2.957623 9.077944,-3.947016 9.904901,-3.484227 0.404265,0.226238 0.544532,0.751559 1.369606,5.129349 0.400004,2.122393 1.039715,3.380183 1.794818,3.528938 0.240435,0.04736 0.675348,-0.380582 1.077927,-1.06066 1.583518,-2.675047 5.04175,-5.780451 6.437211,-5.780451 0.898413,0 1.179276,0.567332 1.599435,3.230818 0.615602,3.902404 1.088794,4.940373 2.079008,4.560392 0.2478,-0.09509 1.117445,-1.544251 1.932542,-3.220359 1.588953,-3.267404 3.043967,-5.101181 4.04754,-5.101181 0.336542,0 1.995616,0.553612 3.686836,1.230249 3.618675,1.447792 5.803951,2.216897 6.298916,2.216897 0.728032,0 0.315743,-1.081924 -1.030482,-2.704176 C 92.79045,14.749214 90.093435,11.860269 87.559781,9.2484118 83.038985,4.5880837 80.886118,2.1317143 80.886118,1.6339273 c 0,-0.5602824 1.317724,0.5453952 5.559901,4.6652107 9.112457,8.849618 21.783421,18.545233 31.032871,23.745861 1.38549,0.779007 8.3063,4.376034 15.37958,7.993392 l 12.8605,6.577013 -72.124891,-5.3e-4 -72.1248909,-5.3e-4 7.8223687,-3.993537 0,2.28e-4 z"
       id="path4484"
       inkscape:connector-curvature="0"
       transform="matrix(8,0,0,-8,175,1360)" />
    <path
       style="fill:#c87137;fill-opacity:0.94117647"
       d="m 782.20812,1337.4775 c -15.38453,4.7158 -21.4295,7.745 -18.79126,9.4166 5.65286,3.5818 26.47167,2.1622 31.8145,-2.1694 2.75439,-2.233 4.33038,-4.7402 3.50221,-5.5716 -1.90087,-1.9082 -12.32007,-2.9647 -16.52545,-1.6756 z"
       id="path5026"
       inkscape:connector-curvature="0" />
    <path
       style="fill:#f9f9f9;fill-opacity:1;stroke:none"
       d="m 77.803524,22.538376 c -0.419799,-0.505826 -0.827985,-2.513192 -0.835367,-4.108136 -0.01211,-2.616075 -1.029062,-3.88017 -2.705286,-3.362722 -1.726457,0.532955 -5.21767,3.876924 -6.077857,5.82152 -0.942068,2.1297 -1.985415,0.752874 -2.376167,-3.135647 -0.134321,-1.336678 -0.434211,-2.937452 -0.666423,-3.557275 -0.396412,-1.058108 -0.484692,-1.126951 -1.445129,-1.126951 -1.415946,0 -4.245353,1.066551 -8.573709,3.231878 -2.020856,1.010964 -3.72335,1.789051 -3.783319,1.729081 -0.132026,-0.132025 8.518028,-8.4111295 11.302496,-10.8177997 2.148089,-1.856635 4.536952,-3.6723425 5.519124,-4.194932 0.429962,-0.2287713 0.713312,-0.2436883 0.946876,-0.049848 0.183317,0.1521397 0.682817,0.2624772 1.110001,0.2451945 0.427184,-0.017283 1.648636,0.1057071 2.714339,0.2733109 1.228344,0.1931825 2.107113,0.2140354 2.400601,0.056966 0.254628,-0.1362727 1.340198,-0.3087181 2.41238,-0.3832121 1.209542,-0.084038 2.098293,-0.2843195 2.341675,-0.5277009 0.346234,-0.346233 0.51892,-0.231408 1.471788,0.9786358 0.593744,0.7539912 3.653632,3.9363649 6.799754,7.0719411 5.308193,5.290405 6.703892,6.912386 6.297622,7.318656 -0.241539,0.241536 -2.547074,-0.588976 -6.050122,-2.179408 -3.741924,-1.698882 -4.575041,-1.781025 -5.731985,-0.565151 -1.148425,1.206919 -2.302274,3.213215 -3.011883,5.23701 -0.844471,2.408424 -1.345023,2.905373 -2.059409,2.04459 z"
       id="path5034"
       inkscape:connector-curvature="0"
       transform="matrix(8,0,0,-8,175,1360)" />
  </g>
  <g
     transform="matrix(0.1,0,0,-0.1,-17.5,136)"
     id="g4255"
     style="fill:#a6a5a5;stroke:none" />
</svg>
