<?xml version="1.0" encoding="UTF-8" standalone="no"?>
<svg
   xmlns:dc="http://purl.org/dc/elements/1.1/"
   xmlns:cc="http://creativecommons.org/ns#"
   xmlns:rdf="http://www.w3.org/1999/02/22-rdf-syntax-ns#"
   xmlns:svg="http://www.w3.org/2000/svg"
   xmlns="http://www.w3.org/2000/svg"
   xmlns:xlink="http://www.w3.org/1999/xlink"
   xmlns:sodipodi="http://sodipodi.sourceforge.net/DTD/sodipodi-0.dtd"
   xmlns:inkscape="http://www.inkscape.org/namespaces/inkscape"
   id="svg4370"
   viewBox="0 0 137.31567 45.416584"
   height="45.416584pt"
   width="137.31567pt"
   version="1.0"
   inkscape:version="0.91 r13725"
   sodipodi:docname="mounts.svg">
  <sodipodi:namedview
     pagecolor="#ffffff"
     bordercolor="#666666"
     borderopacity="1"
     objecttolerance="10"
     gridtolerance="10"
     guidetolerance="10"
     inkscape:pageopacity="0"
     inkscape:pageshadow="2"
     inkscape:window-width="1920"
     inkscape:window-height="1021"
     id="namedview23"
     showgrid="false"
     inkscape:zoom="6.0970056"
     inkscape:cx="106.02326"
     inkscape:cy="8.1407986"
     inkscape:window-x="0"
     inkscape:window-y="27"
     inkscape:window-maximized="1"
     inkscape:current-layer="svg4370" />
  <metadata
     id="metadata4399">
    <rdf:RDF>
      <cc:Work
         rdf:about="">
        <dc:format>image/svg+xml</dc:format>
        <dc:type
           rdf:resource="http://purl.org/dc/dcmitype/StillImage" />
        <dc:title />
      </cc:Work>
    </rdf:RDF>
  </metadata>
  <defs
     id="defs4397">
    <linearGradient
       id="linearGradient4294">
      <stop
         id="stop4296"
         offset="0"
         style="stop-color:#ffc107;stop-opacity:1;" />
      <stop
         id="stop4298"
         offset="1"
         style="stop-color:#ffc107;stop-opacity:0;" />
    </linearGradient>
    <radialGradient
       gradientUnits="userSpaceOnUse"
       gradientTransform="matrix(1.478094,0.00135658,-7.0294764e-4,0.76595781,-19.939887,-41.283896)"
       r="68.635284"
       fy="35.669613"
       fx="59.97274"
       cy="35.669613"
       cx="59.97274"
       id="radialGradient4302"
       xlink:href="#linearGradient4294" />
  </defs>
  <g
     style="fill:#a6a5a5;stroke:none"
     id="g4393"
     transform="matrix(0.1,0,0,-0.1,3.6383048,189.99159)" />
  <rect
     style="display:inline;opacity:1;fill:#80d8ff;fill-opacity:1;stroke:none;stroke-width:3.81399989;stroke-linecap:butt;stroke-linejoin:round;stroke-miterlimit:4;stroke-dasharray:none;stroke-opacity:1"
     id="rect4178-8"
     width="137.27057"
     height="45.289341"
     x="-6.0929319e-06"
     y="-52.799984" />
  <rect
     style="opacity:1;fill:url(#radialGradient4302);fill-opacity:1;stroke:none;stroke-width:3.81399989;stroke-linecap:butt;stroke-linejoin:round;stroke-miterlimit:4;stroke-dasharray:none;stroke-opacity:1"
     id="rect4178"
     width="137.27057"
     height="45.395409"
     x="0.045107469"
     y="-52.778812" />
  <path
     style="fill:#8d6e63;fill-opacity:1;stroke:none"
     class="node"
     id="node8"
     d="m 49.09624,18.279555 c -2.178809,2.682162 -5.963055,7.491567 -8.256537,10.636174 -2.408156,3.237091 -4.816313,6.104233 -5.504357,6.381698 C 34.532627,35.667386 32.12447,34.280063 29.60164,31.96785 25.817394,28.545779 24.900001,28.175819 23.523912,29.285678 20.083688,32.15282 8.042906,44.453792 8.042906,45.101206 c 0,0.462445 28.095158,0.73991 62.497394,0.73991 34.40223,0 62.4974,-0.277465 62.4974,-0.73991 0,-0.369949 -1.60544,-2.219717 -3.55489,-4.16198 -3.09621,-3.052122 -4.0136,-3.422072 -6.88045,-2.959627 -2.75219,0.554929 -3.32556,0.277465 -4.0136,-1.757283 -1.03207,-3.514556 -4.35761,-5.549304 -7.1098,-4.346961 -2.63751,1.109869 -2.63751,1.202354 -8.25654,-6.566678 -5.275005,-7.306587 -7.224466,-7.584052 -13.416868,-2.219717 -5.504357,4.624415 -6.307077,4.901879 -8.371211,2.867142 -2.408156,-2.312213 -4.242943,-1.572304 -6.192402,2.312202 -1.032067,2.034748 -2.408156,3.699546 -2.981528,3.699546 -0.688044,0 -3.210874,-2.497192 -5.504357,-5.641799 C 59.990281,17.447161 56.320709,13.47016 54.715272,13.47016 c -0.917393,0 -3.440224,2.219718 -5.619032,4.809395 z"
     inkscape:connector-curvature="0" />
  <path
     style="fill:#ffee58;fill-opacity:1;stroke:none"
     d="m 98.751874,25.52869 c -1.083338,-0.492083 -1.679332,0.08288 -3.825897,-1.396824 -6.858294,-4.727669 -5.476682,2.723055 -9.761273,3.234059 C 82.816018,27.646047 73.477745,30.049 69.895026,30.248389 61.487038,30.716309 59.61858,11.61878 53.033392,15.23518 c -1.75264,0.962487 -5.535324,5.869934 -6.661179,6.805743 -0.997715,0.829312 -5.282012,-2.326337 -5.810921,-2.326337 -1.626781,0 2.467884,-3.517882 7.172343,-6.16204 3.319869,-1.865941 9.431582,-4.1996603 12.953098,-4.946059 3.08708,-0.654309 4.808762,-0.8161094 8.695947,-0.8172146 3.828418,-0.00112 5.192259,0.11027 8.633387,0.7049065 7.199627,1.2441397 13.886153,3.9188081 19.003199,7.6014921 2.007904,1.44506 4.457504,3.954227 4.707334,4.173885 2.4185,2.126371 -2.124006,5.645551 -2.974726,5.259134 z"
     id="path4468"
     inkscape:connector-curvature="0" />
  <path
     d="m 38.762442,16.049707 c -0.546391,0.777162 -1.688845,2.896713 -2.632612,4.804299 -0.894094,1.907586 -2.135893,4.027138 -2.682283,4.662996 -0.596064,0.635869 -1.887534,3.603225 -2.930644,6.49994 -0.993438,2.967367 -2.135893,5.369517 -2.533268,5.369517 -0.347704,0 -1.688846,-1.624988 -2.980316,-3.673877 -1.837861,-2.896715 -2.384252,-3.461932 -2.781627,-2.614108 -0.24836,0.565208 -0.447048,1.271729 -0.447048,1.554326 0,0.353261 -1.092782,0.423913 -2.433924,0.141305 -1.887532,-0.353251 -2.58294,-0.211957 -3.228675,0.706521 -0.447047,0.635858 -0.794751,1.413031 -0.794751,1.766281 0,0.353261 -1.29147,1.907596 -2.880971,3.391279 -1.53983,1.554324 -3.3280189,3.815171 -3.973754,5.016246 l -1.1424542,2.190204 63.2323592,0 63.232366,-0.07065 -1.5895,-1.978247 c -0.8941,-1.059773 -2.68229,-2.684749 -3.97376,-3.603227 -1.34114,-0.847813 -3.12933,-2.614106 -4.02342,-3.81518 l -1.68885,-2.190194 -1.83786,3.038019 c -0.99344,1.624976 -2.08622,2.967355 -2.43392,2.967355 -0.34771,0 -0.99344,-1.201074 -1.44049,-2.684758 -0.89409,-3.108661 -1.39082,-3.673876 -3.42736,-3.673876 -0.94376,0 -2.03655,-0.63586 -2.73196,-1.624978 -0.64573,-0.847825 -2.33458,-2.967367 -3.7254,-4.592343 -1.39081,-1.624989 -2.8313,-3.885834 -3.179,-5.086908 -0.3477,-1.130424 -0.79475,-2.119553 -1.04311,-2.119553 -0.24836,0 -1.19213,1.69564 -2.13589,3.815181 -0.943771,2.119552 -1.937209,4.027138 -2.235241,4.309745 -0.298032,0.211958 -1.092782,1.978239 -1.788189,3.885834 -3.924082,11.021632 -5.612927,11.869446 -9.686025,5.016257 -1.142454,-2.048901 -2.8313,-4.09779 -3.725394,-4.592355 -1.192127,-0.70651 -1.738518,-1.624977 -1.986877,-3.108659 -0.149016,-1.130424 -0.745079,-2.684759 -1.241799,-3.320627 -0.54639,-0.706511 -1.29147,-2.896705 -1.738517,-5.016247 -0.397375,-2.048901 -0.943767,-3.885834 -1.192126,-4.097789 -0.943767,-0.847815 -2.930644,2.614106 -5.16588,8.90209 -1.291471,3.673876 -2.880972,7.418405 -3.626051,8.407525 l -1.241798,1.695627 -0.894094,-1.695628 c -0.943767,-1.766293 -0.894095,-1.836944 -2.930644,1.978237 L 62.20759,38.23427 59.922682,36.044077 C 57.836461,34.065832 52.720253,30.462606 50.435344,29.332183 49.938625,29.120227 49.29289,28.060456 48.945187,26.930034 48.597483,25.799611 46.759622,22.973548 44.772745,20.571399 42.83554,18.169247 41.04735,15.908402 40.898334,15.484489 40.451288,14.424719 39.75588,14.636675 38.762442,16.049707 Z"
     id="node18-9"
     class="node"
     style="fill:#795548;fill-opacity:1;stroke:none;stroke-width:1px;stroke-linecap:butt;stroke-linejoin:miter;stroke-opacity:1"
     inkscape:connector-curvature="0" />
  <path
     d="m 127.39134,26.624901 c -0.59256,0.622653 -1.58017,0.830204 -2.66653,0.622653 l -1.72831,-0.345919 1.97521,1.037745 c 1.03699,0.553469 1.92583,0.968571 1.97521,0.899388 0,-0.06918 0.44442,-0.830204 0.93823,-1.729582 1.08636,-1.729581 0.88884,-1.937122 -0.49381,-0.484285 z"
     id="node19"
     class="node"
     style="fill:#000000;fill-opacity:1;stroke:none;stroke-opacity:1"
     inkscape:connector-curvature="0" />
  <path
     d="m 16.957991,23.636254 c -0.904078,0.87492 -2.410876,1.265808 -4.068357,1.135452 l -2.636899,-0.227598 3.013598,1.08601 c 1.582142,0.581273 2.938259,1.00327 3.013599,0.908128 0,-0.08895 0.678059,-1.123142 1.431462,-2.341435 1.657477,-2.360032 1.356118,-2.602048 -0.753403,-0.560557 z"
     id="node19-2"
     class="node"
     style="fill:#000000;fill-opacity:1;stroke:none;stroke-opacity:1"
     inkscape:connector-curvature="0" />
  <path
     d="m 115.29012,21.301754 c -1.25644,0.267812 -2.45678,-0.148304 -3.30792,-1.058805 l -1.33717,-1.464872 0.8366,2.341506 c 0.42991,1.238279 0.86225,2.23806 0.98557,2.197775 0.0745,-0.07187 1.33334,-0.57818 2.79002,-1.196635 2.93654,-1.101889 2.9646,-1.443842 0.0329,-0.818969 z"
     id="node19-6"
     class="node"
     style="fill:#000000;fill-opacity:1;stroke:none;stroke-opacity:1"
     inkscape:connector-curvature="0" />
  <path
     d="m 27.591172,14.047924 c -1.232225,0.07283 -2.777622,-0.413713 -4.210699,-1.26808 l -2.270266,-1.370745 2.201251,2.036989 c 1.150365,1.075749 2.172695,1.9544 2.285971,1.935662 0.04236,-0.05066 1.146556,-0.320589 2.40639,-0.659927 2.619136,-0.564146 2.46255,-0.843841 -0.412647,-0.673899 z"
     id="node19-2-6"
     class="node"
     style="fill:#000000;fill-opacity:1;stroke:none;stroke-opacity:1"
     inkscape:connector-curvature="0" />
  <path
     d="m 72.011726,21.034206 c -1.984185,0.823157 -5.007212,0.904255 -8.183507,0.315763 l -5.047802,-0.960683 5.54921,2.096793 c 2.910372,1.11426 5.425276,1.977134 5.596537,1.881648 0.02366,-0.107573 1.612341,-1.182115 3.395977,-2.459726 3.838771,-2.423476 3.319339,-2.794511 -1.310415,-0.873795 z"
     id="node19-2-6-5"
     class="node"
     style="fill:#000000;fill-opacity:1;stroke:none;stroke-opacity:1"
     inkscape:connector-curvature="0" />
  <g
     transform="matrix(0.04938031,0,0,-0.06822942,33.681042,7.3378423)"
     id="g25"
     style="fill:#eb0000;fill-opacity:1;stroke:none;stroke-opacity:1" />
  <g
     transform="translate(8.9201151,7.7892623)"
     id="layer2" />
</svg>
